<svg width="22" height="22" viewBox="0 0 22 22" fill="none" xmlns="http://www.w3.org/2000/svg">
<path fill-rule="evenodd" clip-rule="evenodd" d="M6.7776 2.75L10.45 2.75C11.9688 2.75 13.2 3.98122 13.2 5.5C13.2 6.10752 12.7075 6.6 12.1 6.6C11.4925 6.6 11 6.10752 11 5.5C11 5.19625 10.7538 4.95 10.45 4.95H6.82C6.18579 4.95 5.77629 4.95086 5.46462 4.97632C5.16579 5.00074 5.055 5.04218 5.00061 5.0699C4.79363 5.17536 4.62536 5.34363 4.51989 5.55061C4.49218 5.605 4.45074 5.71579 4.42632 6.01462C4.40086 6.32629 4.4 6.73579 4.4 7.37V9.9C4.4 10.4638 4.40533 10.5851 4.42114 10.6646C4.50794 11.101 4.84904 11.4421 5.2854 11.5289C5.36488 11.5447 5.48616 11.55 6.05 11.55C6.65751 11.55 7.15 12.0425 7.15 12.65C7.15 13.2575 6.65751 13.75 6.05 13.75C6.01893 13.75 5.98817 13.75 5.95773 13.7501C5.53896 13.7504 5.17834 13.7507 4.8562 13.6866C3.54712 13.4262 2.5238 12.4029 2.26341 11.0938C2.19933 10.7717 2.19962 10.411 2.19995 9.99228C2.19998 9.96183 2.2 9.93107 2.2 9.9L2.2 7.3276C2.19998 6.74774 2.19996 6.2475 2.23363 5.83547C2.26916 5.40059 2.34761 4.96805 2.55968 4.55183C2.87606 3.9309 3.3809 3.42606 4.00183 3.10968C4.41805 2.89761 4.85059 2.81916 5.28547 2.78363C5.6975 2.74996 6.19774 2.74998 6.7776 2.75ZM13.3776 8.25H15.2224C15.8023 8.24998 16.3025 8.24996 16.7145 8.28363C17.1494 8.31916 17.582 8.39761 17.9982 8.60968C18.6191 8.92606 19.1239 9.4309 19.4403 10.0518C19.6524 10.4681 19.7308 10.9006 19.7664 11.3355C19.8 11.7475 19.8 12.2478 19.8 12.8276V14.6724C19.8 15.2523 19.8 15.7525 19.7664 16.1645C19.7308 16.5994 19.6524 17.032 19.4403 17.4482C19.1239 18.0691 18.6191 18.5739 17.9982 18.8903C17.582 19.1024 17.1494 19.1808 16.7145 19.2164C16.3025 19.25 15.8023 19.25 15.2224 19.25H13.3776C12.7978 19.25 12.2975 19.25 11.8855 19.2164C11.4506 19.1808 11.0181 19.1024 10.6018 18.8903C9.9809 18.5739 9.47606 18.0691 9.15968 17.4482C8.94761 17.032 8.86916 16.5994 8.83363 16.1645C8.79996 15.7525 8.79998 15.2523 8.8 14.6724V12.8276C8.79998 12.2477 8.79996 11.7475 8.83363 11.3355C8.86916 10.9006 8.94761 10.4681 9.15968 10.0518C9.47606 9.4309 9.9809 8.92606 10.6018 8.60968C11.0181 8.39761 11.4506 8.31916 11.8855 8.28363C12.2975 8.24996 12.7977 8.24998 13.3776 8.25ZM12.0646 10.4763C11.7658 10.5007 11.655 10.5422 11.6006 10.5699C11.3936 10.6754 11.2254 10.8436 11.1199 11.0506C11.0922 11.105 11.0507 11.2158 11.0263 11.5146C11.0009 11.8263 11 12.2358 11 12.87V14.63C11 15.2642 11.0009 15.6737 11.0263 15.9854C11.0507 16.2842 11.0922 16.395 11.1199 16.4494C11.2254 16.6564 11.3936 16.8246 11.6006 16.9301C11.655 16.9578 11.7658 16.9993 12.0646 17.0237C12.3763 17.0491 12.7858 17.05 13.42 17.05H15.18C15.8142 17.05 16.2237 17.0491 16.5354 17.0237C16.8342 16.9993 16.945 16.9578 16.9994 16.9301C17.2064 16.8246 17.3746 16.6564 17.4801 16.4494C17.5078 16.395 17.5493 16.2842 17.5737 15.9854C17.5991 15.6737 17.6 15.2642 17.6 14.63V12.87C17.6 12.2358 17.5991 11.8263 17.5737 11.5146C17.5493 11.2158 17.5078 11.105 17.4801 11.0506C17.3746 10.8436 17.2064 10.6754 16.9994 10.5699C16.945 10.5422 16.8342 10.5007 16.5354 10.4763C16.2237 10.4509 15.8142 10.45 15.18 10.45H13.42C12.7858 10.45 12.3763 10.4509 12.0646 10.4763Z" fill="#AAAAAA"/>
</svg>
