<svg width="27" height="25" viewBox="0 0 27 25" fill="none" xmlns="http://www.w3.org/2000/svg">
<path fill-rule="evenodd" clip-rule="evenodd" d="M14.1684 0.19562C14.3155 0.27838 14.5085 0.453777 14.5973 0.585325C14.7566 0.821408 16.328 3.94975 17.2363 5.83917C17.7858 6.98224 18.0504 7.34374 18.4753 7.53186C18.6664 7.61649 19.2918 7.72993 20.0863 7.82406C20.8005 7.90869 22.0744 8.0591 22.9172 8.15824C25.4408 8.45509 25.5371 8.47319 25.8696 8.71279C26.4555 9.13512 26.662 9.90099 26.3657 10.5522C26.2725 10.7567 25.3992 11.6699 23.608 13.4353C21.4008 15.6109 20.9793 16.06 20.9398 16.2788C20.8936 16.534 20.9701 17.258 21.4145 20.769C21.7707 23.5835 21.7704 23.5746 21.5216 24.0587C21.1573 24.7677 20.3878 25.1404 19.6797 24.951C19.5075 24.9049 18.778 24.5458 18.0586 24.1532C14.0053 21.9405 13.8576 21.8653 13.496 21.8305C13.1771 21.7998 13.035 21.8573 11.5502 22.6187C7.91081 24.4847 7.24129 24.813 6.99111 24.8536C6.1389 24.992 5.27661 24.262 5.27661 23.4021C5.27661 22.8488 5.71949 19.9331 5.88155 19.4194C6.17396 18.4922 6.84991 17.5793 7.60577 17.0903C7.82037 16.9514 9.3939 16.1269 11.1025 15.258C14.1152 13.7259 14.2097 13.6713 14.2321 13.4484C14.2485 13.2846 14.215 13.197 14.1153 13.1436C13.9728 13.0673 12.7217 13.2314 7.31851 14.0349C6.13816 14.2103 5.76688 14.2155 5.12935 14.0651C4.56186 13.9312 4.08512 13.7132 3.67011 13.3979C2.66101 12.6312 0.876321 11.1284 0.725853 10.9187C0.456161 10.5426 0.42215 9.77004 0.65544 9.31756C0.923412 8.79795 1.37392 8.5362 2.18524 8.42889C3.31798 8.27909 5.70962 7.97185 6.92107 7.82047C8.22431 7.65764 8.57062 7.56815 8.78619 7.3385C8.94316 7.17111 9.31773 6.45216 11.1757 2.75175C12.3716 0.369671 12.476 0.219266 13.0504 0.0486573C13.389 -0.0518371 13.8319 0.00630481 14.1684 0.19562Z" fill="url(#paint0_linear_8703_13029)"/>
<defs>
<linearGradient id="paint0_linear_8703_13029" x1="0.5" y1="14.951" x2="26.5" y2="14.951" gradientUnits="userSpaceOnUse">
<stop stop-color="#F1C015"/>
<stop offset="1" stop-color="#E38107"/>
</linearGradient>
</defs>
</svg>
