<svg width="26" height="25" viewBox="0 0 26 25" fill="none" xmlns="http://www.w3.org/2000/svg">
<path fill-rule="evenodd" clip-rule="evenodd" d="M13.6684 0.19562C13.8155 0.27838 14.0085 0.453777 14.0973 0.585325C14.2566 0.821408 15.828 3.94975 16.7363 5.83917C17.2858 6.98224 17.5504 7.34374 17.9753 7.53186C18.1664 7.61649 18.7918 7.72993 19.5863 7.82406C20.3005 7.90869 21.5744 8.0591 22.4172 8.15824C24.9408 8.45509 25.0371 8.47319 25.3696 8.71279C25.9555 9.13512 26.162 9.90099 25.8657 10.5522C25.7725 10.7567 24.8992 11.6699 23.108 13.4353C20.9008 15.6109 20.4793 16.06 20.4398 16.2788C20.3936 16.534 20.4701 17.258 20.9145 20.769C21.2707 23.5835 21.2704 23.5746 21.0216 24.0587C20.6573 24.7677 19.8878 25.1404 19.1797 24.951C19.0075 24.9049 18.278 24.5458 17.5586 24.1532C13.5053 21.9405 13.3576 21.8653 12.996 21.8305C12.6771 21.7998 12.535 21.8573 11.0502 22.6187C7.41081 24.4847 6.74129 24.813 6.49111 24.8536C5.6389 24.992 4.77661 24.262 4.77661 23.4021C4.77661 22.8488 5.21949 19.9331 5.38155 19.4194C5.67396 18.4922 6.34991 17.5793 7.10577 17.0903C7.32037 16.9514 8.8939 16.1269 10.6025 15.258C13.6152 13.7259 13.7097 13.6713 13.7321 13.4484C13.7485 13.2846 13.715 13.197 13.6153 13.1436C13.4728 13.0673 12.2217 13.2314 6.81851 14.0349C5.63816 14.2103 5.26688 14.2155 4.62935 14.0651C4.06186 13.9312 3.58512 13.7132 3.17011 13.3979C2.16101 12.6312 0.376321 11.1284 0.225853 10.9187C-0.0438394 10.5426 -0.07785 9.77004 0.15544 9.31756C0.423412 8.79795 0.873921 8.5362 1.68524 8.42889C2.81798 8.27909 5.20962 7.97185 6.42107 7.82047C7.72431 7.65764 8.07062 7.56815 8.28619 7.3385C8.44316 7.17111 8.81773 6.45216 10.6757 2.75175C11.8716 0.369671 11.976 0.219266 12.5504 0.0486573C12.889 -0.0518371 13.3319 0.00630481 13.6684 0.19562Z" fill="url(#paint0_linear_8708_18685)"/>
<defs>
<linearGradient id="paint0_linear_8708_18685" x1="0" y1="14.951" x2="26" y2="14.951" gradientUnits="userSpaceOnUse">
<stop stop-color="#F1C015"/>
<stop offset="1" stop-color="#E38107"/>
</linearGradient>
</defs>
</svg>
