<svg width="39" height="50" viewBox="0 0 39 50" fill="none" xmlns="http://www.w3.org/2000/svg">
<path d="M32.5023 26.3434C32.5259 24.4503 33.0129 22.594 33.9179 20.9474C34.8229 19.3008 36.1166 17.9174 37.6785 16.9258C36.6863 15.4624 35.3773 14.2582 33.8555 13.4086C32.3337 12.5591 30.641 12.0876 28.9119 12.0318C25.2235 11.632 21.6477 14.3109 19.7681 14.3109C17.8522 14.3109 14.9583 12.0715 11.842 12.1377C9.82635 12.2049 7.86192 12.8102 6.14013 13.8945C4.41834 14.9788 2.99792 16.5052 2.01725 18.325C-2.23078 25.9198 0.937867 37.0817 5.00713 43.2208C7.04306 46.2269 9.42249 49.5848 12.5359 49.4658C15.5826 49.3353 16.7205 47.4596 20.3981 47.4596C24.0415 47.4596 25.1091 49.4658 28.2857 49.3901C31.5549 49.3353 33.6147 46.3706 35.5792 43.3359C37.042 41.194 38.1677 38.8266 38.9144 36.3216C37.0151 35.492 35.3943 34.1035 34.254 32.3291C33.1137 30.5547 32.5045 28.473 32.5023 26.3434Z" fill="white"/>
<path d="M26.5022 7.99428C28.2847 5.78459 29.1629 2.94442 28.9502 0.0769043C26.2269 0.372269 23.7113 1.7163 21.9047 3.84121C21.0214 4.87928 20.3449 6.08694 19.9139 7.39516C19.4828 8.70338 19.3057 10.0865 19.3926 11.4655C20.7547 11.4799 22.1023 11.1751 23.3338 10.5738C24.5653 9.97254 25.6486 9.09055 26.5022 7.99428Z" fill="white"/>
</svg>
