<svg width="37" height="43" viewBox="0 0 37 43" fill="none" xmlns="http://www.w3.org/2000/svg">
<path d="M0.757423 0.749102C0.231188 1.3916 -0.0373207 2.21751 0.00686757 3.05775V39.5345C-0.0474693 40.3761 0.222284 41.2058 0.757423 41.8431L0.869207 41.9751L20.6551 21.5435V21.0488L0.869207 0.633667L0.757423 0.749102Z" fill="url(#paint0_linear_8838_16654)"/>
<path d="M27.2026 28.354L20.6553 21.5435V21.0488L27.2026 14.2383L27.3464 14.3372L35.1873 18.9215C37.4229 20.2243 37.4229 22.368 35.1873 23.6873L27.3783 28.2716L27.2026 28.354Z" fill="url(#paint1_linear_8838_16654)"/>
<path d="M27.394 28.2551L20.655 21.2961L0.757324 41.8432C1.20857 42.2579 1.78616 42.4966 2.38994 42.5176C2.99372 42.5387 3.5856 42.3409 4.06295 41.9586L27.394 28.2551Z" fill="url(#paint2_linear_8838_16654)"/>
<path d="M27.394 14.3372L4.06295 0.650183C3.58871 0.262518 2.99728 0.0599232 2.39269 0.0780197C1.78809 0.0961162 1.20903 0.333747 0.757324 0.749127L20.655 21.2961L27.394 14.3372Z" fill="url(#paint3_linear_8838_16654)"/>
<defs>
<linearGradient id="paint0_linear_8838_16654" x1="18.8985" y1="2.67847" x2="-8.75815" y2="29.461" gradientUnits="userSpaceOnUse">
<stop stop-color="#00A0FF"/>
<stop offset="0.01" stop-color="#00A1FF"/>
<stop offset="0.26" stop-color="#00BEFF"/>
<stop offset="0.51" stop-color="#00D2FF"/>
<stop offset="0.76" stop-color="#00DFFF"/>
<stop offset="1" stop-color="#00E3FF"/>
</linearGradient>
<linearGradient id="paint1_linear_8838_16654" x1="38.1096" y1="21.2962" x2="-0.519901" y2="21.2962" gradientUnits="userSpaceOnUse">
<stop stop-color="#FFE000"/>
<stop offset="0.41" stop-color="#FFBD00"/>
<stop offset="0.78" stop-color="#FFA500"/>
<stop offset="1" stop-color="#FF9C00"/>
</linearGradient>
<linearGradient id="paint2_linear_8838_16654" x1="23.737" y1="25.0889" x2="-13.7752" y2="61.3997" gradientUnits="userSpaceOnUse">
<stop stop-color="#FF3A44"/>
<stop offset="1" stop-color="#C31162"/>
</linearGradient>
<linearGradient id="paint3_linear_8838_16654" x1="-4.25701" y1="-11.3878" x2="12.4886" y2="4.82856" gradientUnits="userSpaceOnUse">
<stop stop-color="#32A071"/>
<stop offset="0.07" stop-color="#2DA771"/>
<stop offset="0.48" stop-color="#15CF74"/>
<stop offset="0.8" stop-color="#06E775"/>
<stop offset="1" stop-color="#00F076"/>
</linearGradient>
</defs>
</svg>
