<svg width="161" height="154" viewBox="0 0 161 154" fill="none" xmlns="http://www.w3.org/2000/svg">
<path fill-rule="evenodd" clip-rule="evenodd" d="M84.613 1.35763C85.5183 1.86692 86.706 2.94628 87.2525 3.75581C88.2332 5.20863 97.9031 24.46 103.493 36.0871C106.874 43.1214 108.503 45.346 111.117 46.5037C112.293 47.0245 116.142 47.7226 121.031 48.3019C125.426 48.8227 133.266 49.7482 138.452 50.3584C153.982 52.1851 154.575 52.2965 156.621 53.771C160.226 56.37 161.497 61.083 159.673 65.0906C159.1 66.3491 153.726 71.9683 142.703 82.8325C129.12 96.2209 126.526 98.9848 126.283 100.331C125.999 101.901 126.47 106.357 129.204 127.963C131.396 145.283 131.394 145.228 129.864 148.207C127.622 152.571 122.886 154.864 118.529 153.698C117.469 153.415 112.98 151.205 108.553 148.789C83.6098 135.172 82.7004 134.709 80.4754 134.495C78.5127 134.306 77.6387 134.661 68.501 139.346C46.105 150.829 41.9849 152.849 40.4453 153.099C35.2009 153.951 29.8945 149.459 29.8945 144.167C29.8945 140.762 32.6199 122.819 33.6172 119.658C35.4167 113.952 39.5764 108.334 44.2278 105.325C45.5484 104.47 55.2317 99.3964 65.7461 94.0493C84.286 84.621 84.8674 84.2848 85.005 82.913C85.1062 81.905 84.9001 81.3663 84.2865 81.0375C83.4097 80.5683 75.7104 81.5776 42.46 86.5223C35.1963 87.6021 32.9116 87.6339 28.9883 86.7083C25.4961 85.8841 22.5623 84.5427 20.0084 82.6027C13.7985 77.8841 2.81582 68.6363 1.88986 67.3455C0.230219 65.0312 0.0209233 60.2771 1.45655 57.4926C3.10562 54.295 5.87797 52.6843 10.8707 52.0239C17.8414 51.1021 32.5592 49.2113 40.0143 48.2798C48.0342 47.2778 50.1653 46.727 51.4919 45.3138C52.4579 44.2837 54.7629 39.8594 66.1964 17.0877C73.5563 2.42871 74.1984 1.50314 77.7334 0.453238C79.8172 -0.165189 82.5422 0.192607 84.613 1.35763Z" fill="url(#paint0_linear_8838_16648)"/>
<defs>
<linearGradient id="paint0_linear_8838_16648" x1="0.5" y1="92.1599" x2="160.5" y2="92.1599" gradientUnits="userSpaceOnUse">
<stop stop-color="#F1C015"/>
<stop offset="1" stop-color="#E38107"/>
</linearGradient>
</defs>
</svg>
